<?xml version="1.0" encoding="UTF-8" standalone="no"?>
<!-- Created with Inkscape (http://www.inkscape.org/) -->

<svg
   width="210mm"
   height="297mm"
   viewBox="0 0 210 297"
   version="1.1"
   id="svg5"
   inkscape:version="1.1.2 (b8e25be833, 2022-02-05)"
   sodipodi:docname="mellow-mates-logo.svg"
   xmlns:inkscape="http://www.inkscape.org/namespaces/inkscape"
   xmlns:sodipodi="http://sodipodi.sourceforge.net/DTD/sodipodi-0.dtd"
   xmlns="http://www.w3.org/2000/svg"
   xmlns:svg="http://www.w3.org/2000/svg">
  <sodipodi:namedview
     id="namedview7"
     pagecolor="#00000d"
     bordercolor="#666666"
     borderopacity="1.0"
     inkscape:pageshadow="2"
     inkscape:pageopacity="0"
     inkscape:pagecheckerboard="true"
     inkscape:document-units="mm"
     showgrid="false"
     inkscape:zoom="2.1997092"
     inkscape:cx="391.64268"
     inkscape:cy="693.72806"
     inkscape:window-width="2560"
     inkscape:window-height="1417"
     inkscape:window-x="-8"
     inkscape:window-y="-8"
     inkscape:window-maximized="1"
     inkscape:current-layer="g848" />
  <defs
     id="defs2">
    <filter
       style="color-interpolation-filters:sRGB;"
       inkscape:label="Drop Shadow"
       id="filter1953"
       x="-0.085338486"
       y="-0.13092174"
       width="1.170677"
       height="1.2618435">
      <feFlood
         flood-opacity="0.827451"
         flood-color="rgb(57,219,255)"
         result="flood"
         id="feFlood1943" />
      <feComposite
         in="flood"
         in2="SourceGraphic"
         operator="in"
         result="composite1"
         id="feComposite1945" />
      <feGaussianBlur
         in="composite1"
         stdDeviation="3.3"
         result="blur"
         id="feGaussianBlur1947" />
      <feOffset
         dx="0"
         dy="0"
         result="offset"
         id="feOffset1949" />
      <feComposite
         in="SourceGraphic"
         in2="offset"
         operator="over"
         result="composite2"
         id="feComposite1951" />
    </filter>
    <filter
       style="color-interpolation-filters:sRGB;"
       inkscape:label="Drop Shadow"
       id="filter2049"
       x="-0.085338486"
       y="-0.13092174"
       width="1.170677"
       height="1.2618435">
      <feFlood
         flood-opacity="0.827451"
         flood-color="rgb(57,219,255)"
         result="flood"
         id="feFlood2039" />
      <feComposite
         in="flood"
         in2="SourceGraphic"
         operator="in"
         result="composite1"
         id="feComposite2041" />
      <feGaussianBlur
         in="composite1"
         stdDeviation="3.3"
         result="blur"
         id="feGaussianBlur2043" />
      <feOffset
         dx="0"
         dy="0"
         result="offset"
         id="feOffset2045" />
      <feComposite
         in="SourceGraphic"
         in2="offset"
         operator="over"
         result="composite2"
         id="feComposite2047" />
    </filter>
  </defs>
  <g
     inkscape:label="Layer 1"
     inkscape:groupmode="layer"
     id="layer1">
    <text
       xml:space="preserve"
       style="font-style:normal;font-variant:normal;font-weight:normal;font-stretch:normal;font-size:25.4px;line-height:1.05;font-family:'Tilt Neon';-inkscape-font-specification:'Tilt Neon, @XROT=29.4,YROT=-18.1';font-variant-ligatures:normal;font-variant-caps:normal;font-variant-numeric:normal;font-variant-east-asian:normal;font-variation-settings:'XROT' 29.4, 'YROT' -18.1;writing-mode:lr-tb;direction:ltr;stroke-width:0.264583"
       x="157.44011"
       y="204.97421"
       id="text21500"><tspan
         sodipodi:role="line"
         style="font-style:normal;font-variant:normal;font-weight:normal;font-stretch:normal;font-size:25.4px;font-family:'Tilt Neon';-inkscape-font-specification:'Tilt Neon, @XROT=29.4,YROT=-18.1';font-variant-ligatures:normal;font-variant-caps:normal;font-variant-numeric:normal;font-variant-east-asian:normal;font-variation-settings:'XROT' 29.4, 'YROT' -18.1;text-align:center;writing-mode:lr-tb;direction:ltr;text-anchor:middle;stroke-width:0.264583"
         x="157.44011"
         y="204.97421"
         id="tspan21498" /></text>
    <text
       xml:space="preserve"
       style="font-style:normal;font-variant:normal;font-weight:normal;font-stretch:normal;font-size:25.4px;line-height:1.05;font-family:'Tilt Neon';-inkscape-font-specification:'Tilt Neon, @XROT=29.4,YROT=-18.1';font-variant-ligatures:normal;font-variant-caps:normal;font-variant-numeric:normal;font-variant-east-asian:normal;font-variation-settings:'XROT' 29.4, 'YROT' -18.1;writing-mode:lr-tb;direction:ltr;stroke-width:0.264583"
       x="162.0329"
       y="204.97421"
       id="text27252"><tspan
         sodipodi:role="line"
         style="font-style:normal;font-variant:normal;font-weight:normal;font-stretch:normal;font-size:25.4px;font-family:'Tilt Neon';-inkscape-font-specification:'Tilt Neon, @XROT=29.4,YROT=-18.1';font-variant-ligatures:normal;font-variant-caps:normal;font-variant-numeric:normal;font-variant-east-asian:normal;font-variation-settings:'XROT' 29.4, 'YROT' -18.1;text-align:center;writing-mode:lr-tb;direction:ltr;text-anchor:middle;stroke-width:0.264583"
         x="162.0329"
         y="204.97421"
         id="tspan27250" /></text>
    <g
       aria-label="o"
       id="text29222"
       style="font-size:25.4px;line-height:1.05;font-family:'Tilt Neon';-inkscape-font-specification:'Tilt Neon, @XROT=29.4,YROT=-18.1';font-variation-settings:'XROT' 29.4, 'YROT' -18.1;white-space:pre;inline-size:15.7709;stroke-width:0.264583" />
    <g
       id="g848"
       style="filter:url(#filter2049)">
      <text
         xml:space="preserve"
         style="font-style:normal;font-variant:normal;font-weight:normal;font-stretch:normal;font-size:25.4px;line-height:1.05;font-family:'Tilt Neon';-inkscape-font-specification:'Tilt Neon, @XROT=29.4,YROT=-18.1';font-variant-ligatures:normal;font-variant-caps:normal;font-variant-numeric:normal;font-variant-east-asian:normal;font-variation-settings:'XROT' 29.4, 'YROT' -18.1;writing-mode:lr-tb;direction:ltr;stroke-width:0.264583;fill:#e5fdff;fill-opacity:0.87058824"
         x="110.83186"
         y="192.5567"
         id="text3224"><tspan
           sodipodi:role="line"
           id="tspan3222"
           style="font-style:normal;font-variant:normal;font-weight:normal;font-stretch:normal;font-size:25.4px;font-family:'Tilt Neon';-inkscape-font-specification:'Tilt Neon, @XROT=29.4,YROT=-18.1';font-variant-ligatures:normal;font-variant-caps:normal;font-variant-numeric:normal;font-variant-east-asian:normal;font-variation-settings:'XROT' 29.4, 'YROT' -18.1;text-align:center;writing-mode:lr-tb;direction:ltr;text-anchor:middle;stroke-width:0.264583;fill:#e5fdff;fill-opacity:0.87058824"
           x="110.83186"
           y="192.5567">Mellow</tspan><tspan
           sodipodi:role="line"
           style="font-style:normal;font-variant:normal;font-weight:normal;font-stretch:normal;font-size:25.4px;font-family:'Tilt Neon';-inkscape-font-specification:'Tilt Neon, @XROT=29.4,YROT=-18.1';font-variant-ligatures:normal;font-variant-caps:normal;font-variant-numeric:normal;font-variant-east-asian:normal;font-variation-settings:'XROT' 29.4, 'YROT' -18.1;text-align:center;writing-mode:lr-tb;direction:ltr;text-anchor:middle;stroke-width:0.264583;fill:#e5fdff;fill-opacity:0.87058824"
           x="110.83186"
           y="219.2267"
           id="tspan15870">Mates</tspan></text>
      <text
         xml:space="preserve"
         style="font-style:normal;font-variant:normal;font-weight:normal;font-stretch:normal;font-size:25.4px;line-height:1.05;font-family:'Tilt Neon';-inkscape-font-specification:'Tilt Neon, @XROT=29.4,YROT=-18.1';font-variant-ligatures:normal;font-variant-caps:normal;font-variant-numeric:normal;font-variant-east-asian:normal;font-variation-settings:'XROT' 29.4, 'YROT' -18.1;writing-mode:lr-tb;direction:ltr;stroke-width:0.264583;fill:#e5fdff;fill-opacity:0.87058824"
         x="67.795784"
         y="206.67525"
         id="text19418"><tspan
           sodipodi:role="line"
           style="font-style:normal;font-variant:normal;font-weight:normal;font-stretch:normal;font-size:25.4px;font-family:'Tilt Neon';-inkscape-font-specification:'Tilt Neon, @XROT=29.4,YROT=-18.1';font-variant-ligatures:normal;font-variant-caps:normal;font-variant-numeric:normal;font-variant-east-asian:normal;font-variation-settings:'XROT' 29.4, 'YROT' -18.1;text-align:center;writing-mode:lr-tb;direction:ltr;text-anchor:middle;stroke-width:0.264583;fill:#e5fdff;fill-opacity:0.87058824"
           x="67.795784"
           y="206.67525"
           id="tspan19416">☆</tspan></text>
      <text
         xml:space="preserve"
         style="font-style:normal;font-variant:normal;font-weight:normal;font-stretch:normal;font-size:25.4px;line-height:1.05;font-family:'Tilt Neon';-inkscape-font-specification:'Tilt Neon, @XROT=29.4,YROT=-18.1';font-variant-ligatures:normal;font-variant-caps:normal;font-variant-numeric:normal;font-variant-east-asian:normal;font-variation-settings:'XROT' 29.4, 'YROT' -18.1;writing-mode:lr-tb;direction:ltr;stroke-width:0.264583;fill:#e5fdff;fill-opacity:0.87058824"
         x="150.9762"
         y="205.31442"
         id="text28018"><tspan
           sodipodi:role="line"
           style="font-style:normal;font-variant:normal;font-weight:normal;font-stretch:normal;font-size:25.4px;font-family:'Tilt Neon';-inkscape-font-specification:'Tilt Neon, @XROT=29.4,YROT=-18.1';font-variant-ligatures:normal;font-variant-caps:normal;font-variant-numeric:normal;font-variant-east-asian:normal;font-variation-settings:'XROT' 29.4, 'YROT' -18.1;text-align:center;writing-mode:lr-tb;direction:ltr;text-anchor:middle;stroke-width:0.264583;fill:#e5fdff;fill-opacity:0.87058824"
           x="150.9762"
           y="205.31442"
           id="tspan28016">☺</tspan></text>
      <path
         style="font-variation-settings:'XROT' 29.4, 'YROT' -18.1;fill:#ffffff;stroke-width:6.04724;stroke-linecap:round;stroke-linejoin:round;paint-order:markers fill stroke"
         id="path30212"
         sodipodi:type="arc"
         sodipodi:cx="91.774445"
         sodipodi:cy="197.02036"
         sodipodi:rx="54.727875"
         sodipodi:ry="38.008812"
         sodipodi:start="0"
         sodipodi:end="0.041642509"
         sodipodi:open="true"
         sodipodi:arc-type="arc"
         d="m 146.50232,197.02036 a 54.727875,38.008812 0 0 1 -0.0474,1.58232" />
      <g
         aria-label="_"
         id="text35671"
         style="font-size:25.4px;line-height:1.05;font-family:'Tilt Neon';-inkscape-font-specification:'Tilt Neon, @XROT=29.4,YROT=-18.1';font-variation-settings:'XROT' 29.4, 'YROT' -18.1;stroke-width:0.264583;fill:#e5fdff;fill-opacity:0.87058824"
         transform="translate(-1.0583333)">
        <path
           d="m 140.59951,198.77849 c 0.44026,0 0.762,-0.11853 0.9652,-0.3556 0.22013,-0.22013 0.3302,-0.4826 0.3302,-0.7874 0,-0.3048 -0.11007,-0.56727 -0.3302,-0.7874 -0.2032,-0.23707 -0.52494,-0.3556 -0.9652,-0.3556 h -50.650461 -6.0706 c -0.423333,0 -0.745067,0.11853 -0.9652,0.3556 -0.220133,0.22013 -0.3302,0.4826 -0.3302,0.7874 0,0.3048 0.110067,0.56727 0.3302,0.7874 0.220133,0.23707 0.541867,0.3556 0.9652,0.3556 h 4.9784 z"
           style="text-align:center;text-anchor:middle;fill:#e5fdff;fill-opacity:0.87058824"
           id="path36795"
           sodipodi:nodetypes="scscscscscscs" />
      </g>
      <path
         id="path37021"
         style="font-variation-settings:'XROT' 29.4, 'YROT' -18.1;fill:none;stroke:#eeffff;stroke-width:3;stroke-linecap:round;stroke-linejoin:round;paint-order:markers fill stroke;stroke-opacity:0.82745099"
         d="m 110.95926,231.43242 c -30.481686,0 -55.191976,-16.10686 -55.191979,-35.97569 3e-6,-19.86883 24.710293,-35.97569 55.191979,-35.97569 30.48169,0 55.19198,16.10686 55.19198,35.97569 v -2e-5 c 0,19.34135 -21.85203,34.30593 -51.21319,35.12997"
         sodipodi:nodetypes="cssssc" />
    </g>
    <g
       id="g872"
       transform="translate(18.763844,-113.78587)">
      <g
         id="g1041"
         style="filter:url(#filter1953)">
        <g
           aria-label="Mellow
Mates"
           id="text854"
           style="font-size:25.4px;line-height:1.05;font-family:'Tilt Neon';-inkscape-font-specification:'Tilt Neon, @XROT=29.4,YROT=-18.1';font-variation-settings:'XROT' 29.4, 'YROT' -18.1;stroke-width:0.264583">
          <path
             d="m 93.572574,190.1691 q -0.0508,0.635 0.254,0.9906 0.3302,0.3302 0.762,0.381 0.4572,0.0254 0.8128,-0.2794 0.3556,-0.3048 0.4064,-0.9398 0.0508,-0.5334 0.0254,-1.016 -0.0254,-0.508 -0.1016,-0.9652 -0.0508,-0.4826 -0.1524,-0.9652 -0.127,-0.7874 -0.3302,-1.4224 -0.2032,-0.635 -0.4826,-1.2954 -0.254,-0.6604 -0.6096,-1.5494 -0.1778,-0.4318 -0.3048,-1.016 -0.127,-0.5842 -0.2032,-1.2954 -0.0508,-0.7366 -0.127,-1.5748 -0.0508,-0.8636 -0.0762,-1.8288 -0.0254,-0.6858 -0.3556,-1.143 -0.3302,-0.4572 -0.8382,-0.635 -0.508,-0.1778 -1.0414,-0.0508 -0.508,0.1016 -0.9144,0.5588 -0.4064,0.4572 -0.5334,1.27 -0.127,0.8382 -0.1524,1.651 -0.0254,0.7874 -0.0254,1.5494 0,0.7366 -0.0254,1.397 0,0.635 -0.127,1.1938 -0.1016,0.508 -0.2032,0.9652 -0.0762,0.4318 -0.1778,0.8636 -0.0762,0.4064 -0.1778,0.7874 -0.0762,0.3556 -0.1524,0.6858 -0.0762,0.3302 -0.1524,0.5842 -0.1016,0.4064 -0.1778,0.635 -0.0508,0.2286 -0.127,0.3048 -0.0508,0.0762 -0.127,0 -0.0508,-0.0762 -0.2032,-0.2794 -0.127,-0.2032 -0.3302,-0.5334 -0.2032,-0.3302 -0.381,-0.6604 -0.1778,-0.3302 -0.381,-0.6858 -0.2032,-0.3556 -0.4064,-0.7366 -0.2032,-0.4064 -0.4318,-0.8382 -0.2032,-0.4572 -0.4318,-0.9144 -0.2794,-0.5588 -0.5588,-1.143 -0.254,-0.5842 -0.508,-1.2192 -0.2286,-0.635 -0.4572,-1.2954 -0.2032,-0.6858 -0.4064,-1.4224 -0.1778,-0.762 -0.6096,-1.1938 -0.4064,-0.4572 -0.889,-0.5842 -0.4572,-0.1524 -0.888999,0 -0.4318,0.127 -0.6604,0.5588 -0.2286,0.4064 -0.1524,1.0668 0.127,0.889 0.254,1.6256 0.1524,0.7112 0.2794,1.3462 0.127,0.635 0.2286,1.2446 0.127,0.5842 0.2286,1.1684 0.1016,0.5842 0.1778,1.2954 0.101599,0.7112 0.203199,1.4478 0.1016,0.7366 0.1778,1.397 0.0762,0.4064 0.1016,0.8382 0.0254,0.4064 0.0254,0.8128 0,0.4064 -0.0508,0.8128 -0.0508,0.6604 0.254,1.016 0.3048,0.3302 0.7366,0.381 0.4572,0.0508 0.8128,-0.254 0.3556,-0.3048 0.4064,-0.9398 0.0508,-0.508 0.0508,-1.016 0,-0.508 -0.0508,-0.9906 -0.0254,-0.4826 -0.0762,-0.9144 -0.0762,-0.4572 -0.1524,-0.8382 -0.0508,-0.4064 -0.1016,-0.7874 -0.0508,-0.381 -0.127,-0.8382 -0.0508,-0.4572 -0.1016,-1.0668 -0.0508,-0.6096 -0.127,-1.4732 -0.0254,-0.4318 0,-0.7366 0.0508,-0.3048 0.1016,-0.5588 0.0762,-0.2794 0.127,-0.5842 0.0508,-0.3302 0.0254,-0.7366 0,-0.4064 -0.127,-0.9906 -0.1016,-0.5842 -0.381,-1.4478 -0.2794,-0.889 -0.762,-1.2954 -0.4826,-0.4064 -1.015999,-0.4064 -0.5334,0 -0.9652,0.3302 -0.4318,0.3048 -0.635,0.889 -0.1778,0.5842 0.0254,1.3462 0.2794,0.9906 0.5334,1.6256 0.254,0.635 0.4826,1.016 0.2286,0.381 0.4318,0.6096 0.228599,0.2032 0.431799,0.3302 0.2286,0.127 0.4318,0.2794 0.2032,0.127 0.4064,0.3556 0.2032,0.2286 0.4064,0.6604 0.381,0.7874 0.7366,1.5748 0.381,0.7874 0.7874,1.6002 0.4064,0.8128 0.889,1.7272 0.4826,0.889 1.0922,1.9304 0.3302,0.5842 0.762,0.9144 0.4318,0.3048 0.8636,0.3556 0.4572,0.0508 0.8636,-0.1524 0.4064,-0.2286 0.7366,-0.6858 0.3302,-0.4826 0.508,-1.1938 0.3048,-1.143 0.4826,-2.0066 0.2032,-0.889 0.381,-1.6764 0.2032,-0.7874 0.4064,-1.6256 0.2032,-0.8636 0.508,-1.905 0.1524,-0.5334 0.2794,-0.8382 0.1524,-0.3302 0.254,-0.508 0.127,-0.1778 0.2286,-0.3048 0.1016,-0.1524 0.1778,-0.3302 0.0762,-0.2032 0.1016,-0.508 0.0508,-0.3302 0.0508,-0.8636 0,-0.5334 -0.0508,-1.397 -0.0254,-0.6096 -0.3556,-0.9652 -0.3048,-0.3556 -0.7874,-0.4572 -0.4572,-0.1016 -0.9398,0.0508 -0.4826,0.127 -0.8636,0.5334 -0.3556,0.4064 -0.4572,1.0414 -0.127,0.9398 -0.127,1.5748 0,0.6096 0.127,0.9906 0.127,0.3556 0.3048,0.5842 0.2032,0.2286 0.4064,0.381 0.2286,0.1524 0.4318,0.3302 0.2286,0.1524 0.381,0.4064 0.1778,0.254 0.2286,0.6858 0.1016,0.6096 0.3048,1.2192 0.2286,0.5842 0.4572,1.1684 0.254,0.5842 0.4826,1.1176 0.254,0.5334 0.4064,1.016 0.1778,0.4572 0.254,0.8382 0.0762,0.5588 0.127,1.1938 0.0762,0.6096 0.0254,1.27 z"
             style="text-align:center;text-anchor:middle"
             id="path874" />
          <path
             d="m 98.804951,184.7081 q -0.6604,0.1524 -0.9398,0.5588 -0.254,0.381 -0.1778,0.8128 0.1016,0.4318 0.4572,0.7112 0.381,0.254 0.9652,0.1524 0.4826,-0.0762 1.015999,-0.1016 0.5334,-0.0254 1.1176,0 0.6096,0 1.2192,0.0254 0.6096,0.0254 1.2446,0.0254 0.8382,0 1.4986,-0.254 0.6858,-0.254 1.1176,-0.6858 0.4572,-0.4572 0.6096,-1.0922 0.1524,-0.635 -0.1016,-1.397 -0.381,-1.3208 -1.1684,-2.2098 -0.762,-0.889 -1.8034,-1.3462 -1.016,-0.4826 -2.1844,-0.4826 -1.4732,0 -2.590799,0.7874 -1.0922,0.762 -1.6002,2.1336 -0.508,1.3716 -0.2286,3.175 0.2794,1.8796 1.143,3.175 0.889,1.2954 2.184399,1.9812 1.2954,0.6604 2.7686,0.6604 0.635,0 1.1938,-0.127 0.5588,-0.127 1.143,-0.381 0.5842,-0.254 1.1684,-0.635 0.4572,-0.254 0.5334,-0.635 0.0762,-0.4064 -0.1016,-0.762 -0.1778,-0.3556 -0.5588,-0.508 -0.3556,-0.1778 -0.8382,0.0254 -0.5334,0.2286 -0.9652,0.4064 -0.4318,0.1524 -0.8382,0.254 -0.381,0.0762 -0.8128,0.0762 -0.889,0 -1.7018,-0.4826 -0.8128,-0.4826 -1.3716,-1.3208 -0.558799,-0.8636 -0.736599,-1.9812 -0.127,-1.0668 0.1016,-1.8542 0.2286,-0.8128 0.787399,-1.2446 0.5842,-0.4572 1.4478,-0.4572 0.635,0 1.2192,0.3048 0.5842,0.2794 1.016,0.8128 0.4572,0.508 0.635,1.2192 0.0508,0.1778 -0.0508,0.3048 -0.0762,0.127 -0.2794,0.2032 -0.1778,0.0762 -0.4318,0.1016 -0.254,0.0254 -0.5334,0.0254 -0.7112,0 -1.4986,-0.0508 -0.762,-0.0508 -1.5494,-0.0508 -0.787399,-0.0254 -1.523999,0.127 z"
             style="text-align:center;text-anchor:middle"
             id="path876" />
          <path
             d="m 109.52377,190.0929 q -0.0762,0.635 0.2032,1.016 0.3048,0.3556 0.7366,0.4318 0.4318,0.0508 0.8128,-0.2286 0.381,-0.2794 0.4572,-0.9398 0.0762,-0.6604 0.0508,-1.27 0,-0.6096 -0.0762,-1.1684 -0.0508,-0.5842 -0.127,-1.0922 -0.2032,-1.6764 -0.4064,-3.175 -0.2032,-1.4986 -0.4318,-2.8702 -0.2286,-1.397 -0.4572,-2.6924 -0.1016,-0.5334 -0.2286,-1.0414 -0.1016,-0.508 -0.2286,-0.9906 -0.127,-0.508 -0.3302,-0.9906 -0.2032,-0.508 -0.6096,-0.6858 -0.381,-0.1778 -0.762,-0.0508 -0.381,0.1016 -0.6096,0.4826 -0.2286,0.381 -0.1016,0.9398 0.1524,0.635 0.3048,1.27 0.1778,0.6096 0.254,1.2192 0.4064,2.6416 0.7366,4.826 0.3556,2.159 0.635,3.9878 0.0762,0.4572 0.127,0.9652 0.0762,0.508 0.0762,1.016 0.0254,0.508 -0.0254,1.0414 z"
             style="text-align:center;text-anchor:middle"
             id="path878" />
          <path
             d="m 114.27358,190.0929 q -0.0762,0.635 0.2032,1.016 0.3048,0.3556 0.7366,0.4318 0.4318,0.0508 0.8128,-0.2286 0.381,-0.2794 0.4572,-0.9398 0.0762,-0.6604 0.0508,-1.27 0,-0.6096 -0.0762,-1.1684 -0.0508,-0.5842 -0.127,-1.0922 -0.2032,-1.6764 -0.4064,-3.175 -0.2032,-1.4986 -0.4318,-2.8702 -0.2286,-1.397 -0.4572,-2.6924 -0.1016,-0.5334 -0.2286,-1.0414 -0.1016,-0.508 -0.2286,-0.9906 -0.127,-0.508 -0.3302,-0.9906 -0.2032,-0.508 -0.6096,-0.6858 -0.381,-0.1778 -0.762,-0.0508 -0.381,0.1016 -0.6096,0.4826 -0.2286,0.381 -0.1016,0.9398 0.1524,0.635 0.3048,1.27 0.1778,0.6096 0.254,1.2192 0.4064,2.6416 0.7366,4.826 0.3556,2.159 0.635,3.9878 0.0762,0.4572 0.127,0.9652 0.0762,0.508 0.0762,1.016 0.0254,0.508 -0.0254,1.0414 z"
             style="text-align:center;text-anchor:middle"
             id="path880" />
          <path
             d="m 121.94438,191.2867 q 0.508,0.254 0.9144,0.0762 0.4318,-0.1778 0.635,-0.5588 0.2286,-0.381 0.127,-0.8128 -0.0762,-0.4318 -0.6096,-0.7112 -0.381,-0.2286 -0.6858,-0.4572 -0.3048,-0.2286 -0.5842,-0.508 -0.254,-0.3048 -0.508,-0.6604 -0.3556,-0.508 -0.635,-1.143 -0.2794,-0.6604 -0.381,-1.27 -0.1524,-1.0414 0.1016,-1.8288 0.254,-0.7874 0.8636,-1.2446 0.6096,-0.4572 1.4986,-0.4572 0.9398,0 1.7018,0.508 0.7874,0.508 1.3208,1.3716 0.5334,0.8636 0.7112,1.9304 0.0762,0.635 0.0254,1.2192 -0.0254,0.5588 -0.2794,1.016 -0.2794,0.5334 -0.6858,0.8636 -0.4064,0.3048 -1.0922,0.6096 -0.5588,0.2286 -0.7112,0.6604 -0.127,0.4318 0.0508,0.8382 0.2032,0.4064 0.6096,0.6096 0.4064,0.1778 0.9906,-0.0508 1.0668,-0.4572 1.7526,-1.0668 0.6858,-0.635 1.0922,-1.524 0.4064,-0.762 0.4826,-1.6256 0.1016,-0.8636 -0.0508,-1.8796 -0.2286,-1.7018 -1.0922,-2.9972 -0.8636,-1.2954 -2.159,-2.032 -1.27,-0.7366 -2.794,-0.7366 -1.4986,0 -2.6416,0.8128 -1.1176,0.7874 -1.651,2.159 -0.5334,1.3716 -0.254,3.0988 0.1524,1.0414 0.508,1.8796 0.381,0.8128 0.8382,1.5494 0.5588,0.8382 1.143,1.397 0.5842,0.5588 1.4478,0.9652 z"
             style="text-align:center;text-anchor:middle"
             id="path882" />
          <path
             d="m 130.70735,180.1869 q -0.254,-0.5588 -0.6858,-0.6858 -0.4318,-0.127 -0.8382,0.0762 -0.381,0.1778 -0.5588,0.6096 -0.1778,0.4064 0.1016,0.9652 0.3302,0.7112 0.6604,1.4224 0.3302,0.7112 0.6604,1.4224 0.381,0.8382 0.762,1.651 0.381,0.8128 0.8382,1.778 0.1524,0.3048 0.2032,0.5334 0.0762,0.2032 0.1016,0.4826 0.0254,0.254 0.0254,0.7112 0.0254,0.762 0.3302,1.27 0.3048,0.4826 0.7366,0.7112 0.4318,0.2032 0.8636,0.1016 0.4318,-0.1016 0.7112,-0.5334 0.2794,-0.4318 0.254,-1.2192 -0.0254,-0.4064 -0.0762,-0.635 -0.0254,-0.254 -0.0508,-0.4318 -0.0254,-0.2032 0,-0.4572 0.0762,-0.5842 0.127,-0.9906 0.0508,-0.4318 0.0762,-0.8128 0.0508,-0.381 0.127,-0.889 0.0254,-0.1778 0.0508,-0.3556 0.0254,-0.1778 0.0508,-0.3302 0.0508,-0.1778 0.0762,-0.3048 0.0254,-0.1524 0.0508,-0.254 0.0254,-0.1778 0.0254,-0.3048 0.0254,-0.1524 0.0508,-0.2286 0.0254,-0.1016 0.0508,-0.127 0.0254,-0.0508 0.0508,0 0.0508,0.0508 0.127,0.2032 0.0508,0.0762 0.1016,0.2032 0.0762,0.127 0.127,0.3048 0.0762,0.1524 0.1524,0.3302 0.0762,0.1778 0.1524,0.3302 0.254,0.5334 0.4318,0.9906 0.2032,0.4572 0.381,0.9144 0.2032,0.4318 0.4318,0.9398 0.127,0.2794 0.127,0.5842 0,0.2794 -0.0254,0.635 -0.0254,0.3556 0.0254,0.8128 0.0762,0.762 0.381,1.2192 0.3302,0.4318 0.762,0.6096 0.4572,0.1778 0.889,0.1016 0.4572,-0.1016 0.7874,-0.4064 0.3556,-0.3302 0.4826,-0.8636 0.127,-0.5334 -0.0762,-1.2446 -0.1016,-0.3556 -0.2032,-0.508 -0.0762,-0.1778 -0.1524,-0.254 -0.0508,-0.1016 -0.0508,-0.1778 0,-0.1016 0.0762,-0.2794 0.1778,-0.508 0.3302,-1.016 0.1524,-0.5334 0.3302,-1.1176 0.2032,-0.5842 0.4826,-1.27 0.2794,-0.6096 0.4572,-1.4986 0.2032,-0.889 0.3048,-1.7272 0.0508,-0.635 -0.254,-0.9906 -0.2794,-0.3556 -0.7112,-0.4064 -0.4318,-0.0508 -0.7874,0.2032 -0.3556,0.254 -0.4318,0.8382 -0.0762,0.762 -0.254,1.4986 -0.1524,0.7112 -0.4318,1.2954 -0.2794,0.6604 -0.508,1.27 -0.2286,0.5842 -0.4318,1.1684 -0.1778,0.5588 -0.3556,1.2192 -0.0254,0.2032 -0.1524,0.381 -0.1016,0.1778 -0.2286,0.3556 -0.1016,0.1524 -0.1778,0.3556 -0.0762,0.2032 -0.127,0.508 -0.0254,0.2794 0.0508,0.7366 0.0762,0.762 0.381,1.2192 0.3302,0.4318 0.762,0.6096 0.4572,0.1778 0.889,0.1016 0.4572,-0.1016 0.7874,-0.4064 0.3556,-0.3302 0.4826,-0.8382 0.127,-0.5334 -0.0762,-1.2446 -0.127,-0.4318 -0.3048,-0.7366 -0.1778,-0.3048 -0.3556,-0.508 -0.1524,-0.2032 -0.3048,-0.381 -0.1524,-0.1778 -0.254,-0.4064 -0.2032,-0.5842 -0.4572,-1.143 -0.2286,-0.5842 -0.4826,-1.1684 -0.2286,-0.6096 -0.508,-1.1938 -0.1016,-0.2032 -0.1778,-0.381 -0.0762,-0.1778 -0.1778,-0.381 -0.0762,-0.2286 -0.2286,-0.508 -0.127,-0.2794 -0.3302,-0.7112 -0.4318,-0.7874 -0.889,-1.143 -0.4572,-0.381 -0.9144,-0.381 -0.4318,0 -0.8382,0.3048 -0.381,0.3048 -0.6858,0.8636 -0.3048,0.5334 -0.4572,1.2446 -0.1016,0.508 -0.1778,0.889 -0.0762,0.381 -0.127,0.6604 -0.0508,0.254 -0.1016,0.4826 -0.0508,0.2032 -0.0762,0.4318 -0.1016,0.6096 -0.1778,0.9906 -0.0508,0.381 -0.1016,0.7366 -0.0508,0.3556 -0.1524,1.016 -0.0254,0.2032 -0.127,0.4318 -0.1016,0.2032 -0.2286,0.4572 -0.127,0.254 -0.2032,0.5588 -0.0508,0.3048 0,0.635 0.0508,0.9652 0.4572,1.4732 0.4318,0.4826 0.9652,0.5588 0.5334,0.0762 1.016,-0.2286 0.4826,-0.3048 0.6858,-0.9398 0.2286,-0.6604 -0.0254,-1.6256 -0.127,-0.4064 -0.2794,-0.6858 -0.1524,-0.3048 -0.3302,-0.5334 -0.1778,-0.2286 -0.3556,-0.4572 -0.1524,-0.2286 -0.2794,-0.4826 -0.3302,-0.762 -0.635,-1.397 -0.2794,-0.635 -0.5588,-1.2192 -0.254,-0.5842 -0.508,-1.1176 -0.3302,-0.7112 -0.6604,-1.4224 -0.3302,-0.7112 -0.6858,-1.4478 z"
             style="text-align:center;text-anchor:middle"
             id="path884" />
          <path
             d="m 97.458771,216.8391 q -0.0508,0.635 0.254,0.9906 0.3302,0.3302 0.762,0.381 0.4572,0.0254 0.8128,-0.2794 0.3556,-0.3048 0.4064,-0.9398 0.0508,-0.5334 0.0254,-1.016 -0.0254,-0.508 -0.1016,-0.9652 -0.0508,-0.4826 -0.1524,-0.9652 -0.127,-0.7874 -0.3302,-1.4224 -0.2032,-0.635 -0.4826,-1.2954 -0.254,-0.6604 -0.6096,-1.5494 -0.1778,-0.4318 -0.3048,-1.016 -0.127,-0.5842 -0.2032,-1.2954 -0.0508,-0.7366 -0.127,-1.5748 -0.0508,-0.8636 -0.0762,-1.8288 -0.0254,-0.6858 -0.3556,-1.143 -0.3302,-0.4572 -0.8382,-0.635 -0.508,-0.1778 -1.0414,-0.0508 -0.508,0.1016 -0.9144,0.5588 -0.4064,0.4572 -0.5334,1.27 -0.127,0.8382 -0.1524,1.651 -0.0254,0.7874 -0.0254,1.5494 0,0.7366 -0.0254,1.397 0,0.635 -0.127,1.1938 -0.1016,0.508 -0.2032,0.9652 -0.0762,0.4318 -0.1778,0.8636 -0.0762,0.4064 -0.1778,0.7874 -0.0762,0.3556 -0.1524,0.6858 -0.0762,0.3302 -0.1524,0.5842 -0.1016,0.4064 -0.1778,0.635 -0.0508,0.2286 -0.127,0.3048 -0.0508,0.0762 -0.127,0 -0.0508,-0.0762 -0.2032,-0.2794 -0.127,-0.2032 -0.3302,-0.5334 -0.2032,-0.3302 -0.381,-0.6604 -0.1778,-0.3302 -0.381,-0.6858 -0.2032,-0.3556 -0.4064,-0.7366 -0.2032,-0.4064 -0.4318,-0.8382 -0.2032,-0.4572 -0.4318,-0.9144 -0.2794,-0.5588 -0.5588,-1.143 -0.254,-0.5842 -0.508,-1.2192 -0.2286,-0.635 -0.4572,-1.2954 -0.2032,-0.6858 -0.4064,-1.4224 -0.1778,-0.762 -0.6096,-1.1938 -0.4064,-0.4572 -0.889,-0.5842 -0.4572,-0.1524 -0.889,0 -0.4318,0.127 -0.6604,0.5588 -0.2286,0.4064 -0.1524,1.0668 0.127,0.889 0.254,1.6256 0.1524,0.7112 0.2794,1.3462 0.127,0.635 0.2286,1.2446 0.127,0.5842 0.2286,1.1684 0.1016,0.5842 0.1778,1.2954 0.1016,0.7112 0.2032,1.4478 0.1016,0.7366 0.1778,1.397 0.0762,0.4064 0.1016,0.8382 0.0254,0.4064 0.0254,0.8128 0,0.4064 -0.0508,0.8128 -0.0508,0.6604 0.254,1.016 0.3048,0.3302 0.7366,0.381 0.4572,0.0508 0.8128,-0.254 0.3556,-0.3048 0.4064,-0.9398 0.0508,-0.508 0.0508,-1.016 0,-0.508 -0.0508,-0.9906 -0.0254,-0.4826 -0.0762,-0.9144 -0.0762,-0.4572 -0.1524,-0.8382 -0.0508,-0.4064 -0.1016,-0.7874 -0.0508,-0.381 -0.127,-0.8382 -0.0508,-0.4572 -0.1016,-1.0668 -0.0508,-0.6096 -0.127,-1.4732 -0.0254,-0.4318 0,-0.7366 0.0508,-0.3048 0.1016,-0.5588 0.0762,-0.2794 0.127,-0.5842 0.0508,-0.3302 0.0254,-0.7366 0,-0.4064 -0.127,-0.9906 -0.1016,-0.5842 -0.381,-1.4478 -0.2794,-0.889 -0.762,-1.2954 -0.4826,-0.4064 -1.016,-0.4064 -0.5334,0 -0.9652,0.3302 -0.4318,0.3048 -0.635,0.889 -0.1778,0.5842 0.0254,1.3462 0.2794,0.9906 0.5334,1.6256 0.254,0.635 0.4826,1.016 0.2286,0.381 0.4318,0.6096 0.2286,0.2032 0.4318,0.3302 0.2286,0.127 0.4318,0.2794 0.2032,0.127 0.4064,0.3556 0.2032,0.2286 0.4064,0.6604 0.381,0.7874 0.7366,1.5748 0.381,0.7874 0.7874,1.6002 0.4064,0.8128 0.889,1.7272 0.4826,0.889 1.0922,1.9304 0.3302,0.5842 0.762,0.9144 0.4318,0.3048 0.8636,0.3556 0.4572,0.0508 0.8636,-0.1524 0.4064,-0.2286 0.7366,-0.6858 0.3302,-0.4826 0.508,-1.1938 0.3048,-1.143 0.4826,-2.0066 0.2032,-0.889 0.381,-1.6764 0.2032,-0.7874 0.4064,-1.6256 0.2032,-0.8636 0.508,-1.905 0.1524,-0.5334 0.2794,-0.8382 0.1524,-0.3302 0.254,-0.508 0.127,-0.1778 0.2286,-0.3048 0.1016,-0.1524 0.1778,-0.3302 0.0762,-0.2032 0.1016,-0.508 0.0508,-0.3302 0.0508,-0.8636 0,-0.5334 -0.0508,-1.397 -0.0254,-0.6096 -0.3556,-0.9652 -0.3048,-0.3556 -0.7874,-0.4572 -0.4572,-0.1016 -0.9398,0.0508 -0.4826,0.127 -0.8636,0.5334 -0.3556,0.4064 -0.4572,1.0414 -0.127,0.9398 -0.127,1.5748 0,0.6096 0.127,0.9906 0.127,0.3556 0.3048,0.5842 0.2032,0.2286 0.4064,0.381 0.2286,0.1524 0.4318,0.3302 0.2286,0.1524 0.381,0.4064 0.1778,0.254 0.2286,0.6858 0.1016,0.6096 0.3048,1.2192 0.2286,0.5842 0.4572,1.1684 0.254,0.5842 0.4826,1.1176 0.254,0.5334 0.4064,1.016 0.1778,0.4572 0.254,0.8382 0.0762,0.5588 0.127,1.1938 0.0762,0.6096 0.0254,1.27 z"
             style="text-align:center;text-anchor:middle"
             id="path886" />
          <path
             d="m 109.26975,207.7967 q -0.254,-0.508 -0.6604,-0.635 -0.381,-0.127 -0.762,0.0508 -0.381,0.1778 -0.5588,0.5588 -0.1778,0.3556 0.0254,0.8636 0.1524,0.3048 0.2286,0.889 0.1016,0.5588 0.1524,1.2192 0.0508,0.6604 0.0762,1.3462 0.0508,0.6604 0.0762,1.1938 0.0508,0.6858 0.0508,1.1684 0,0.4572 -0.127,0.762 -0.1016,0.2794 -0.381,0.4064 -0.254,0.1016 -0.7112,0.0762 -0.4318,-0.0254 -0.9652,-0.3302 -0.5334,-0.3302 -1.016,-0.8382 -0.4826,-0.5334 -0.8636,-1.1938 -0.3556,-0.6858 -0.4826,-1.4224 -0.127,-0.762 -0.0254,-1.397 0.127,-0.635 0.4318,-1.1176 0.3048,-0.4826 0.7874,-0.7366 0.4826,-0.2794 1.1176,-0.2794 0.8636,0 1.6256,0.4826 0.762,0.4572 1.2954,1.2954 0.5334,0.8382 0.6858,1.9558 0.0508,0.3302 0.127,0.8636 0.0762,0.5334 0.1524,1.0414 0.0762,0.4826 0.1016,0.762 0.0508,0.3556 0.0762,0.7112 0.0508,0.3556 0.0508,0.7112 0,0.3302 -0.0508,0.7366 -0.0762,0.6096 0.2032,0.9652 0.3048,0.3556 0.7366,0.4064 0.4572,0.0508 0.8128,-0.2286 0.381,-0.2794 0.4572,-0.9398 0.0762,-0.6858 0.0254,-1.3716 -0.0254,-0.6858 -0.127,-1.2446 -0.0762,-0.381 -0.127,-0.8128 -0.0508,-0.4572 -0.127,-0.9652 -0.0508,-0.5334 -0.127,-1.0414 -0.1778,-1.27 -0.7366,-2.286 -0.5334,-1.0414 -1.3462,-1.778 -0.8128,-0.7366 -1.8034,-1.143 -0.9906,-0.4064 -2.0828,-0.4064 -1.4478,0 -2.54,0.7874 -1.0922,0.762 -1.6256,2.1336 -0.508,1.3462 -0.254,3.1242 0.2032,1.3208 0.7366,2.3876 0.5334,1.0414 1.2954,1.8034 0.7874,0.762 1.7018,1.1938 0.9398,0.4064 1.8796,0.4826 0.9652,0.0508 1.7018,-0.1524 0.7366,-0.2286 1.1938,-0.7874 0.4826,-0.5588 0.6096,-1.4986 0.1524,-0.9652 -0.1016,-2.3876 -0.2032,-1.0922 -0.2794,-1.8796 -0.0508,-0.8128 -0.0762,-1.397 -0.0254,-0.5842 -0.127,-1.0922 -0.0762,-0.5334 -0.3302,-1.016 z"
             style="text-align:center;text-anchor:middle"
             id="path888" />
          <path
             d="m 115.11175,216.8137 q -0.0762,0.6604 0.2032,1.0414 0.3048,0.3556 0.7366,0.4064 0.4318,0.0508 0.8128,-0.2286 0.381,-0.3048 0.4572,-0.9906 0.0762,-0.7112 0.1016,-1.1938 0.0254,-0.4826 -0.0254,-0.9398 -0.0508,-0.4572 -0.1524,-1.0414 -0.1778,-0.9652 -0.3302,-1.8034 -0.127,-0.8382 -0.254,-1.6002 -0.1016,-0.7874 -0.2286,-1.5748 -0.127,-0.8128 -0.2286,-1.7272 -0.0762,-0.5842 -0.1524,-0.9906 -0.0762,-0.4318 -0.1778,-0.7366 -0.0762,-0.3302 -0.1778,-0.6096 -0.0762,-0.3048 -0.1524,-0.6604 -0.1524,-0.5334 -0.5334,-0.7366 -0.381,-0.2032 -0.7874,-0.1016 -0.381,0.0762 -0.6604,0.4318 -0.254,0.3556 -0.1778,0.9652 0.0508,0.3302 0.127,0.7366 0.1016,0.4064 0.2032,0.8382 0.127,0.4064 0.2032,0.8636 0.254,1.1938 0.4064,2.1082 0.1778,0.889 0.2794,1.651 0.127,0.7366 0.2286,1.4732 0.1016,0.7366 0.2032,1.5748 0.1016,0.635 0.127,1.0414 0.0508,0.4064 0.0254,0.8128 0,0.381 -0.0762,0.9906 z m 2.2606,-7.8994 q 0.6096,0 0.889,-0.3302 0.3048,-0.3556 0.3048,-0.8128 0.0254,-0.4572 -0.3048,-0.7874 -0.3048,-0.3556 -0.9144,-0.3556 -0.4064,0 -0.7874,0.0762 -0.381,0.0508 -0.7366,0.1016 -0.6604,0.0762 -1.1176,0.127 -0.4318,0.0508 -0.762,-0.0508 -0.127,-0.0254 -0.3048,-0.0762 -0.1524,-0.0762 -0.381,-0.127 -0.2286,-0.0508 -0.5588,-0.0508 -0.6096,0 -0.9144,0.3556 -0.3048,0.3302 -0.3048,0.7874 0,0.4572 0.3048,0.8128 0.3048,0.3302 0.889,0.3302 0.2286,0 0.381,0.0254 0.1778,0 0.3048,0.0254 0.127,0.0254 0.254,0.0508 0.4318,0.1524 0.9906,0.1778 0.5842,0.0254 1.4478,-0.127 0.4064,-0.0762 0.6858,-0.1016 0.2794,-0.0508 0.635,-0.0508 z"
             style="text-align:center;text-anchor:middle"
             id="path890" />
          <path
             d="m 121.46176,211.3781 q -0.6604,0.1524 -0.9398,0.5588 -0.254,0.381 -0.1778,0.8128 0.1016,0.4318 0.4572,0.7112 0.381,0.254 0.9652,0.1524 0.4826,-0.0762 1.016,-0.1016 0.5334,-0.0254 1.1176,0 0.6096,0 1.2192,0.0254 0.6096,0.0254 1.2446,0.0254 0.8382,0 1.4986,-0.254 0.6858,-0.254 1.1176,-0.6858 0.4572,-0.4572 0.6096,-1.0922 0.1524,-0.635 -0.1016,-1.397 -0.381,-1.3208 -1.1684,-2.2098 -0.762,-0.889 -1.8034,-1.3462 -1.016,-0.4826 -2.1844,-0.4826 -1.4732,0 -2.5908,0.7874 -1.0922,0.762 -1.6002,2.1336 -0.508,1.3716 -0.2286,3.175 0.2794,1.8796 1.143,3.175 0.889,1.2954 2.1844,1.9812 1.2954,0.6604 2.7686,0.6604 0.635,0 1.1938,-0.127 0.5588,-0.127 1.143,-0.381 0.5842,-0.254 1.1684,-0.635 0.4572,-0.254 0.5334,-0.635 0.0762,-0.4064 -0.1016,-0.762 -0.1778,-0.3556 -0.5588,-0.508 -0.3556,-0.1778 -0.8382,0.0254 -0.5334,0.2286 -0.9652,0.4064 -0.4318,0.1524 -0.8382,0.254 -0.381,0.0762 -0.8128,0.0762 -0.889,0 -1.7018,-0.4826 -0.8128,-0.4826 -1.3716,-1.3208 -0.5588,-0.8636 -0.7366,-1.9812 -0.127,-1.0668 0.1016,-1.8542 0.2286,-0.8128 0.7874,-1.2446 0.5842,-0.4572 1.4478,-0.4572 0.635,0 1.2192,0.3048 0.5842,0.2794 1.016,0.8128 0.4572,0.508 0.635,1.2192 0.0508,0.1778 -0.0508,0.3048 -0.0762,0.127 -0.2794,0.2032 -0.1778,0.0762 -0.4318,0.1016 -0.254,0.0254 -0.5334,0.0254 -0.7112,0 -1.4986,-0.0508 -0.762,-0.0508 -1.5494,-0.0508 -0.7874,-0.0254 -1.524,0.127 z"
             style="text-align:center;text-anchor:middle"
             id="path892" />
          <path
             d="m 136.32078,208.9905 q 0.4064,0.3048 0.8382,0.2286 0.4572,-0.0762 0.7366,-0.381 0.3048,-0.3048 0.3048,-0.7366 0.0254,-0.4318 -0.4318,-0.8382 -0.762,-0.6604 -1.6256,-0.9144 -0.8382,-0.254 -1.6256,-0.254 -1.143,0 -2.0066,0.4826 -0.8382,0.4572 -1.27,1.2446 -0.4064,0.762 -0.2794,1.778 0.1524,0.9906 0.7112,1.6002 0.5588,0.6096 1.397,1.016 0.8382,0.4064 1.8034,0.8128 0.4318,0.2032 0.9906,0.4826 0.5842,0.254 1.016,0.6096 0.4318,0.3302 0.4826,0.7366 0.0254,0.381 -0.1524,0.5842 -0.1778,0.2032 -0.508,0.2794 -0.3048,0.0762 -0.7112,0.0762 -0.3556,-0.0254 -0.8382,-0.1016 -0.4826,-0.1016 -1.0414,-0.2286 -0.5334,-0.1524 -1.1176,-0.3302 -0.6096,-0.2032 -1.016,0.0254 -0.4064,0.2286 -0.5588,0.6604 -0.127,0.4064 0.0508,0.8382 0.1778,0.4064 0.762,0.6096 1.143,0.3556 2.159,0.5588 1.016,0.1778 1.905,0.2032 1.1176,0.0254 1.905,-0.381 0.7874,-0.4318 1.143,-1.1938 0.3556,-0.7874 0.2032,-1.778 -0.1778,-1.0668 -0.7112,-1.7526 -0.5334,-0.6858 -1.3462,-1.143 -0.7874,-0.4572 -1.7018,-0.8382 -0.2794,-0.127 -0.6858,-0.2794 -0.4064,-0.1778 -0.8382,-0.381 -0.4064,-0.2032 -0.7112,-0.4318 -0.2794,-0.2286 -0.3048,-0.4572 -0.0508,-0.3556 0.127,-0.5842 0.1778,-0.2286 0.4826,-0.3556 0.3302,-0.127 0.6858,-0.127 0.254,0 0.508,0.0762 0.2794,0.0508 0.5842,0.2032 0.3302,0.127 0.6858,0.381 z"
             style="text-align:center;text-anchor:middle"
             id="path894" />
        </g>
        <g
           aria-label="☆"
           id="text858"
           style="font-size:25.4px;line-height:1.05;font-family:'Tilt Neon';-inkscape-font-specification:'Tilt Neon, @XROT=29.4,YROT=-18.1';font-variation-settings:'XROT' 29.4, 'YROT' -18.1;stroke-width:0.264583">
          <path
             d="m 65.433588,203.57645 q -0.4826,0.4572 -0.508,0.9398 -0.0254,0.4826 0.254,0.8128 0.3048,0.3048 0.7874,0.3302 0.4826,0.0254 1.016,-0.4572 0.4572,-0.4064 0.7874,-0.6858 0.3556,-0.3048 0.635,-0.508 0.3048,-0.2286 0.5588,-0.4318 0.1524,-0.127 0.2286,-0.1778 0.0762,-0.0762 0.1524,-0.0762 0.0762,-0.0254 0.1524,0.0508 0.1016,0.0508 0.254,0.1778 0.2286,0.1778 0.5334,0.4318 0.3048,0.2286 0.762,0.5842 0.4826,0.3556 1.1938,0.9144 0.9144,0.6858 1.651,0.7874 0.762,0.0762 1.2192,-0.3048 0.4572,-0.381 0.508,-1.143 0.0762,-0.762 -0.4318,-1.7526 -0.635,-1.3462 -0.9652,-2.0828 -0.3048,-0.7366 -0.4826,-1.0922 -0.1016,-0.3048 -0.1524,-0.4064 -0.0254,-0.1016 0.0762,-0.1778 0.1016,-0.1016 0.3048,-0.3048 0.2032,-0.2286 0.4826,-0.4826 0.2794,-0.2794 0.7112,-0.6604 0.4572,-0.4064 1.1684,-1.016 0.5588,-0.4826 0.7874,-1.016 0.254,-0.5334 0.1016,-0.9906 -0.1524,-0.4572 -0.7112,-0.7366 -0.5588,-0.2794 -1.5748,-0.2794 -1.3208,0.0254 -2.1336,0.0254 -0.7874,-0.0254 -1.2192,-0.0254 -0.2032,0 -0.3302,0 -0.1016,-0.0254 -0.1778,-0.0762 -0.0762,-0.0508 -0.1524,-0.1524 -0.0762,-0.127 -0.2032,-0.3556 -0.1778,-0.3302 -0.4318,-0.7366 -0.2286,-0.4318 -0.5842,-1.0922 -0.3556,-0.6858 -0.8382,-1.6764 -0.4318,-0.9398 -0.889,-1.3716 -0.4572,-0.4572 -0.889,-0.4064 -0.4064,0.0508 -0.7112,0.6096 -0.3048,0.5588 -0.4572,1.5748 -0.1016,0.9398 -0.2032,1.5494 -0.0762,0.6096 -0.1524,0.9906 -0.0508,0.381 -0.0762,0.7112 -0.0254,0.2032 -0.1016,0.3302 -0.0508,0.127 -0.127,0.1524 -0.0762,0.0254 -0.2032,0.0254 -0.1016,0 -0.2286,0 -0.3302,0 -0.762,0.0254 -0.4064,0 -1.016,0.0508 -0.6096,0.0254 -1.4986,0.0254 -0.9398,0 -1.4986,0.2794 -0.5334,0.2794 -0.6604,0.7366 -0.1016,0.4318 0.254,0.9906 0.3556,0.5334 1.2192,1.0922 0.9144,0.5842 1.5494,1.016 0.635,0.4064 1.0414,0.6858 0.4318,0.2794 0.6604,0.4572 0.2286,0.2032 0.3302,0.3048 0.1016,0.1016 0.127,0.2286 0.0254,0.127 0,0.4318 -0.0254,0.2032 -0.1016,0.762 -0.0508,0.5334 -0.1524,1.2446 -0.0762,0.6858 -0.1778,1.3716 -0.0762,0.6604 -0.1524,1.1176 -0.0762,0.5842 0.2032,0.9144 0.3048,0.3302 0.7366,0.381 0.4318,0.0508 0.7874,-0.2032 0.3556,-0.254 0.4572,-0.8128 0.0508,-0.4826 0.127,-1.1684 0.1016,-0.7112 0.2032,-1.4732 0.1016,-0.7874 0.1778,-1.4478 0.1016,-0.6604 0.1524,-1.016 0.0762,-0.635 -0.1778,-1.143 -0.2286,-0.5334 -0.8382,-0.9652 -0.6604,-0.508 -1.2954,-0.9652 -0.6096,-0.4572 -1.0668,-0.7366 -0.2286,-0.1524 -0.4064,-0.127 -0.1524,0 -0.2032,0.0762 -0.0508,0.0762 0.0254,0.1778 0.0762,0.0762 0.3048,0.0762 0.4826,0 1.0922,-0.0762 0.635,-0.1016 1.3716,-0.1016 0.6604,0 1.0668,-0.2286 0.4318,-0.2286 0.635,-0.5588 0.2032,-0.3302 0.2286,-0.6604 0.0762,-0.6096 0.1524,-1.0922 0.0762,-0.4826 0.1524,-0.9144 0.0762,-0.4318 0.1016,-0.8128 0.0254,-0.3556 -0.1016,-0.4572 -0.127,-0.127 -0.2794,-0.0508 -0.127,0.0508 -0.1778,0.2794 -0.0254,0.2286 0.1778,0.6096 0.1778,0.3048 0.4064,0.7366 0.254,0.4318 0.508,0.9144 0.2794,0.4572 0.5334,0.9906 0.2032,0.381 0.4572,0.6604 0.2794,0.254 0.6604,0.4064 0.381,0.1524 0.8636,0.1778 0.762,0.0508 1.2446,0.0508 0.508,-0.0254 0.889,-0.0508 0.254,0 0.3556,0 0.127,-0.0254 0.127,0 0,0 -0.1016,0.1016 -0.1016,0.1016 -0.3048,0.3048 -0.1778,0.1524 -0.4064,0.381 -0.2032,0.2032 -0.4826,0.508 -0.2794,0.2794 -0.635,0.635 -0.3048,0.2794 -0.4826,0.8128 -0.1524,0.5334 0.1524,1.2192 0.3556,0.8128 0.6858,1.5494 0.3302,0.7112 0.5334,1.143 0.1778,0.3048 0.2794,0.4064 0.1016,0.1016 0.1016,0.0762 0.0254,-0.0508 -0.0762,-0.1778 -0.0762,-0.127 -0.2794,-0.2794 -0.4826,-0.3556 -1.0414,-0.7874 -0.5334,-0.4318 -1.27,-0.9144 -0.5334,-0.381 -1.1684,-0.2794 -0.6096,0.0762 -1.0922,0.5588 -0.5588,0.508 -1.2446,1.0414 -0.6604,0.508 -1.3716,1.1684 z"
             style="text-align:center;text-anchor:middle"
             id="path897" />
        </g>
        <g
           aria-label="☺"
           id="text862"
           style="font-size:25.4px;line-height:1.05;font-family:'Tilt Neon';-inkscape-font-specification:'Tilt Neon, @XROT=29.4,YROT=-18.1';font-variation-settings:'XROT' 29.4, 'YROT' -18.1;stroke-width:0.264583">
          <path
             d="m 156.34829,197.49122 q 0,-0.5588 -0.3048,-0.8382 -0.3048,-0.3048 -0.7112,-0.3302 -0.381,-0.0508 -0.7112,0.1778 -0.3302,0.2032 -0.4318,0.6858 -0.127,0.5842 -0.3556,0.9652 -0.2286,0.3556 -0.6096,0.5334 -0.3556,0.1778 -0.8636,0.1778 -0.4572,0 -1.0414,-0.2032 -0.5842,-0.2286 -1.1176,-0.6604 -0.5334,-0.4318 -0.9144,-1.0668 -0.3048,-0.508 -0.7366,-0.5842 -0.4318,-0.1016 -0.8128,0.127 -0.381,0.2286 -0.508,0.6604 -0.127,0.4318 0.1524,0.9398 0.635,1.0414 1.4732,1.7272 0.8382,0.6858 1.8034,1.016 0.9652,0.3302 1.9558,0.3302 0.9906,0 1.8288,-0.4318 0.8636,-0.4318 1.397,-1.2446 0.5334,-0.8128 0.508,-1.9812 z m -5.7404,-5.207 q -0.254,-0.4318 -0.635,-0.5588 -0.381,-0.127 -0.762,0 -0.3556,0.1016 -0.5842,0.4064 -0.2032,0.3048 -0.1016,0.762 0.0508,0.2794 0.1016,0.4318 0.0508,0.1524 0.0762,0.3302 0.0254,0.1524 -0.0254,0.508 -0.0762,0.5588 0.1778,0.9144 0.2794,0.3302 0.6858,0.4318 0.4318,0.0762 0.8128,-0.1778 0.4064,-0.2794 0.5588,-0.9906 0.0762,-0.3302 0.0508,-0.6858 0,-0.3556 -0.1016,-0.7112 -0.0762,-0.3556 -0.254,-0.6604 z m 1.5748,1.905 q -0.0762,0.5588 0.2032,0.889 0.2794,0.3302 0.6858,0.4064 0.4318,0.0762 0.8128,-0.1778 0.381,-0.254 0.5334,-0.889 0.1016,-0.381 0.1016,-0.7366 0,-0.381 -0.0762,-0.7112 -0.0762,-0.3556 -0.2286,-0.635 -0.254,-0.4826 -0.6604,-0.6096 -0.4064,-0.1524 -0.8128,0 -0.381,0.127 -0.6096,0.4572 -0.2032,0.3302 -0.1016,0.7874 0.0762,0.2794 0.1016,0.4318 0.0508,0.127 0.0508,0.2794 0.0254,0.1524 0,0.508 z m -0.889,11.6586 q 0.4064,0.2286 0.7874,0.0508 0.381,-0.1778 0.6096,-0.5588 0.2286,-0.381 0.1778,-0.7874 -0.0508,-0.4318 -0.508,-0.6858 -0.635,-0.3556 -1.143,-0.5842 -0.508,-0.254 -1.016,-0.5334 -1.2192,-0.6604 -2.2352,-1.6764 -1.016,-1.016 -1.7018,-2.3368 -0.6604,-1.3208 -0.889,-2.8194 -0.2286,-1.6002 0.0254,-2.921 0.2794,-1.3208 0.9906,-2.286 0.7366,-0.9652 1.8542,-1.4986 1.1176,-0.5334 2.5654,-0.5334 1.4732,0 2.7686,0.5842 1.2954,0.5588 2.3114,1.5748 1.0414,1.016 1.7272,2.3876 0.6858,1.3716 0.889,2.9718 0.2286,1.4986 0.0254,2.7686 -0.1778,1.27 -0.7874,2.2352 -0.5842,0.9652 -1.6256,1.5748 -0.4318,0.254 -1.016,0.4826 -0.5842,0.2032 -1.3716,0.4572 -0.5842,0.1524 -0.7874,0.5842 -0.1778,0.4064 -0.0508,0.8382 0.127,0.4064 0.508,0.635 0.381,0.254 0.9652,0.0762 0.6604,-0.2032 1.1684,-0.381 0.5334,-0.1778 0.9652,-0.3556 0.4572,-0.2032 0.8382,-0.4318 1.397,-0.8636 2.2606,-2.1336 0.8636,-1.2954 1.143,-2.9718 0.3048,-1.6764 0,-3.6576 -0.3048,-2.1082 -1.1938,-3.8354 -0.8636,-1.7526 -2.1844,-3.0226 -1.3208,-1.27 -3.0226,-1.9558 -1.6764,-0.7112 -3.5814,-0.7112 -1.9304,0 -3.4798,0.7366 -1.5494,0.7366 -2.5908,2.0828 -1.0414,1.3208 -1.4732,3.0988 -0.4064,1.778 -0.0762,3.8862 0.3048,1.9558 1.143,3.6068 0.8382,1.651 2.0574,2.8702 1.2446,1.2192 2.667,2.032 0.5842,0.3048 1.0668,0.5334 0.508,0.2286 1.2192,0.6096 z"
             style="text-align:center;text-anchor:middle"
             id="path900" />
        </g>
        <path
           id="path864"
           style="font-variation-settings:'XROT' 29.4, 'YROT' -18.1;fill:#ffffff;stroke-width:6.04724;stroke-linecap:round;stroke-linejoin:round;paint-order:markers fill stroke"
           d="m 146.50232,197.02036 a 54.727875,38.008812 0 0 1 -0.0474,1.58232" />
        <g
           aria-label="_"
           id="g868"
           style="font-size:25.4px;line-height:1.05;font-family:'Tilt Neon';-inkscape-font-specification:'Tilt Neon, @XROT=29.4,YROT=-18.1';font-variation-settings:'XROT' 29.4, 'YROT' -18.1;stroke-width:0.264583"
           transform="translate(-1.0583333)">
          <path
             d="m 140.59951,198.77849 c 0.44026,0 0.762,-0.11853 0.9652,-0.3556 0.22013,-0.22013 0.3302,-0.4826 0.3302,-0.7874 0,-0.3048 -0.11007,-0.56727 -0.3302,-0.7874 -0.2032,-0.23707 -0.52494,-0.3556 -0.9652,-0.3556 h -50.650461 -6.0706 c -0.423333,0 -0.745067,0.11853 -0.9652,0.3556 -0.220133,0.22013 -0.3302,0.4826 -0.3302,0.7874 0,0.3048 0.110067,0.56727 0.3302,0.7874 0.220133,0.23707 0.541867,0.3556 0.9652,0.3556 h 4.9784 z"
             style="text-align:center;text-anchor:middle"
             id="path866"
             sodipodi:nodetypes="scscscscscscs" />
        </g>
        <path
           id="path870"
           style="font-variation-settings:'XROT' 29.4, 'YROT' -18.1;fill:none;stroke:#000000;stroke-width:3;stroke-linecap:round;stroke-linejoin:round;paint-order:markers fill stroke"
           d="m 110.95926,231.43242 c -30.481686,0 -55.191976,-16.10686 -55.191979,-35.97569 3e-6,-19.86883 24.710293,-35.97569 55.191979,-35.97569 30.48169,0 55.19198,16.10686 55.19198,35.97569 v -2e-5 c 0,19.34135 -21.85203,34.30593 -51.21319,35.12997"
           sodipodi:nodetypes="cssssc" />
      </g>
    </g>
  </g>
</svg>
